<svg xmlns="http://www.w3.org/2000/svg" version="1.1" xmlns:xlink="http://www.w3.org/1999/xlink" viewBox="0 0 200 200"><rect width="200" height="200" fill="url('#gradient')"></rect><defs><linearGradient id="gradient" gradientTransform="rotate(30 0.5 0.5)"><stop offset="0%" stop-color="#dee90b"></stop><stop offset="100%" stop-color="#d9e241"></stop></linearGradient></defs><g><g fill="#1b3855" transform="matrix(3.875525651808242,0,0,3.875525651808242,10.108827522439654,128.68123247645502)" stroke="#0e5278" stroke-width="0.2"><path d="M9.98 0L9.15-2.66L4.45-2.66L3.63 0L-0.03 0L5.19-14.22L8.41-14.22L13.66 0L9.98 0ZM6.80-10.23L5.27-5.30L8.33-5.30L6.80-10.23ZM24.36-5.36L24.36-5.20Q24.36-2.60 23.28-1.20Q22.21 0.20 20.25 0.20L20.25 0.20Q18.64 0.20 17.66-1.08L17.66-1.08L17.52 0L14.57 0L14.57-15L17.86-15L17.86-9.72Q18.78-10.76 20.23-10.76L20.23-10.76Q22.21-10.76 23.28-9.35Q24.36-7.93 24.36-5.36L24.36-5.36ZM21.05-5.40L21.05-5.40Q21.05-6.92 20.65-7.57Q20.24-8.22 19.40-8.22L19.40-8.22Q18.29-8.22 17.86-7.37L17.86-7.37L17.86-3.17Q18.28-2.33 19.42-2.33L19.42-2.33Q20.59-2.33 20.90-3.47L20.90-3.47Q21.05-4.02 21.05-5.40ZM25.40-4.82L25.39-5.38Q25.39-6.96 26.01-8.20Q26.62-9.43 27.77-10.10Q28.93-10.76 30.48-10.76L30.48-10.76Q32.85-10.76 34.22-9.29Q35.59-7.82 35.59-5.29L35.59-5.29L35.59-5.18Q35.59-2.71 34.21-1.25Q32.84 0.20 30.50 0.20L30.50 0.20Q28.24 0.20 26.88-1.16Q25.51-2.51 25.40-4.82L25.40-4.82ZM28.69-5.77L28.68-5.18Q28.68-3.71 29.14-3.03Q29.60-2.34 30.50-2.34L30.50-2.34Q32.26-2.34 32.29-5.05L32.29-5.05L32.29-5.38Q32.29-8.22 30.48-8.22L30.48-8.22Q28.83-8.22 28.69-5.77L28.69-5.77ZM36.62-5.36L36.62-5.36Q36.62-7.87 37.71-9.32Q38.79-10.76 40.73-10.76L40.73-10.76Q42.15-10.76 43.12-9.65L43.12-9.65L43.12-15L46.42-15L46.42 0L43.46 0L43.29-1.13Q42.28 0.20 40.71 0.20L40.71 0.20Q38.83 0.20 37.72-1.25Q36.62-2.70 36.62-5.36ZM39.92-5.76L39.91-5.16Q39.91-2.34 41.55-2.34L41.55-2.34Q42.65-2.34 43.12-3.26L43.12-3.26L43.12-7.29Q42.67-8.22 41.57-8.22L41.57-8.22Q40.05-8.22 39.92-5.76L39.92-5.76Z"></path></g></g></svg>